<svg version="1.1" id="Layer_1" xmlns="http://www.w3.org/2000/svg" xmlns:xlink="http://www.w3.org/1999/xlink" x="0px" y="0px"
	 width="100%" viewBox="0 0 512 512" enable-background="new 0 0 512 512" xml:space="preserve">
<path fill="#000000" opacity="1.000000" stroke="none" 
	d="
M1.000000,192.000000 
	C1.000000,128.000000 1.000000,64.500000 1.000000,1.000000 
	C171.666672,1.000000 342.333344,1.000000 513.000000,1.000000 
	C513.000000,171.666672 513.000000,342.333344 513.000000,513.000000 
	C342.333344,513.000000 171.666672,513.000000 1.000000,513.000000 
	C1.000000,406.166656 1.000000,299.333344 1.000000,192.000000 
M255.887817,3.033602 
	C171.687622,3.033602 87.487419,3.033602 2.999378,3.033602 
	C2.999378,4.891144 2.999378,6.200449 2.999378,7.509753 
	C2.999384,89.280212 2.998623,171.050659 3.006165,252.821121 
	C3.006287,254.150192 3.107848,255.479279 3.021084,257.760590 
	C3.021084,341.771759 3.021084,425.782959 3.021084,509.999512 
	C4.830863,509.999512 5.981650,509.999512 7.132436,509.999512 
	C89.058624,509.999542 170.984818,510.000488 252.911011,509.991760 
	C254.238968,509.991638 255.566940,509.874115 257.834503,509.964417 
	C341.833282,509.964417 425.832031,509.964417 509.999023,509.964417 
	C509.999023,507.997803 509.999054,506.835724 509.999054,505.673676 
	C509.999054,423.910278 509.999817,342.146912 509.990875,260.383514 
	C509.990753,259.222504 509.868286,258.061523 509.954987,255.987564 
	C509.954987,171.772705 509.954987,87.557831 509.954987,3.000615 
	C508.030151,3.000615 506.565826,3.000615 505.101471,3.000615 
	C423.659241,3.000622 342.216980,2.999839 260.774750,3.007570 
	C259.446259,3.007696 258.117798,3.111771 255.887817,3.033602 
z"/>
<path fill="#4390B3" opacity="1.000000" stroke="none" 
	d="
M509.802917,256.900513 
	C509.868286,258.061523 509.990753,259.222504 509.990875,260.383514 
	C509.999817,342.146912 509.999054,423.910278 509.999054,505.673676 
	C509.999054,506.835724 509.999023,507.997803 509.999023,509.964417 
	C425.832031,509.964417 341.833282,509.964417 257.354004,509.431091 
	C256.870361,426.475525 256.866302,344.053284 256.870422,261.631042 
	C256.870514,259.967621 256.965668,258.304169 257.478424,256.688660 
	C290.422668,256.760345 322.904968,256.786530 355.387268,256.807312 
	C406.859161,256.840271 458.331024,256.869629 509.802917,256.900513 
M430.906647,376.646484 
	C391.751343,376.654663 352.596008,376.672485 313.440704,376.656494 
	C309.392426,376.654846 305.779083,377.400208 305.805237,382.355743 
	C305.830902,387.225647 309.330627,388.122284 313.434021,388.100189 
	C324.930359,388.038269 336.427216,388.087036 347.923889,388.080017 
	C376.082123,388.062805 404.242340,388.231812 432.397797,387.940979 
	C447.871826,387.781128 460.289825,374.854675 460.792328,359.272522 
	C461.283356,344.047363 449.039062,330.333923 433.846863,329.093994 
	C428.883850,328.688934 425.837128,330.492432 425.640076,334.193359 
	C425.399139,338.718719 428.284973,340.208374 432.230316,340.644073 
	C434.032379,340.843140 435.877594,341.156097 437.567078,341.783844 
	C445.460724,344.716797 449.896362,352.153412 449.042450,360.772888 
	C448.199921,369.276947 441.926117,375.032440 430.906647,376.646484 
M433.377716,424.331879 
	C430.030518,409.396790 418.731506,400.183472 403.392883,400.128326 
	C381.237274,400.048615 359.081146,400.098511 336.925293,400.124512 
	C335.443115,400.126251 333.520111,399.864929 332.577515,400.653198 
	C330.960907,402.005157 328.990540,404.078186 328.969086,405.870026 
	C328.947845,407.642914 330.828003,409.897827 332.487183,411.083466 
	C333.770508,412.000519 335.999878,411.747955 337.809143,411.751099 
	C359.132050,411.788483 380.455170,411.741394 401.777863,411.818604 
	C404.573059,411.828735 407.501068,411.978638 410.135284,412.804535 
	C418.354584,415.381409 423.041565,423.046509 422.169464,431.835175 
	C421.311859,440.477814 414.987640,446.506653 405.052917,447.748810 
	C401.147308,448.237152 398.602295,449.779816 398.865143,453.937134 
	C399.134705,458.201111 402.102112,459.227386 405.904022,459.162750 
	C422.842987,458.874756 435.584564,443.267700 433.377716,424.331879 
M384.500244,353.569153 
	C372.171112,353.570404 359.841827,353.534332 347.512970,353.590820 
	C342.384705,353.614319 339.698975,355.699524 340.002991,359.453217 
	C340.365631,363.930756 343.425385,365.027466 347.385834,365.019043 
	C367.212311,364.976715 387.038971,364.982025 406.865479,365.014343 
	C410.848145,365.020844 413.980408,363.840973 414.067017,359.326630 
	C414.155640,354.707336 410.935425,353.567352 406.992920,353.572205 
	C399.828705,353.581024 392.664490,353.571075 384.500244,353.569153 
z"/>
<path fill="#81BCDA" opacity="1.000000" stroke="none" 
	d="
M257.016479,256.640747 
	C256.965668,258.304169 256.870514,259.967621 256.870422,261.631042 
	C256.866302,344.053284 256.870361,426.475525 256.884216,509.354553 
	C255.566940,509.874115 254.238968,509.991638 252.911011,509.991760 
	C170.984818,510.000488 89.058624,509.999542 7.132436,509.999512 
	C5.981650,509.999512 4.830863,509.999512 3.021084,509.999512 
	C3.021084,425.782959 3.021084,341.771759 3.549620,257.263855 
	C85.950706,256.753723 167.823257,256.741516 249.695801,256.720459 
	C252.023834,256.719849 254.351822,256.624451 256.769531,256.562469 
	C256.859222,256.551697 257.016479,256.640747 257.016479,256.640747 
M113.528580,335.977722 
	C110.322632,332.124329 110.090706,327.981964 112.053978,323.461212 
	C112.908409,321.493713 113.952202,319.236298 113.704239,317.261993 
	C113.431374,315.089508 112.257988,312.272919 110.567223,311.269012 
	C109.147614,310.426086 106.355194,311.584106 104.303467,312.259827 
	C103.398254,312.557922 102.822067,313.855042 101.893661,314.934479 
	C99.077492,311.580688 96.977348,306.342773 91.651184,309.404785 
	C85.966225,312.673065 90.003746,317.230927 91.275963,321.312561 
	C90.592194,321.490112 90.131256,321.716370 89.672501,321.712006 
	C86.175301,321.678802 83.685806,323.251740 83.359039,326.758698 
	C83.004570,330.562927 85.541832,332.400970 89.018578,333.177032 
	C91.455116,333.720856 93.869949,334.363373 96.289917,334.979736 
	C99.774307,335.867218 109.067184,348.394104 108.730186,351.862030 
	C108.654015,352.645905 108.179413,353.423828 107.770935,354.137329 
	C105.122795,358.763000 102.618622,363.487701 99.668404,367.914062 
	C98.742653,369.303040 96.649376,370.556396 94.986755,370.704102 
	C86.248703,371.480316 77.542870,371.749023 72.261497,362.586945 
	C71.789841,361.768738 70.835953,360.745758 70.042938,360.688293 
	C67.873505,360.531006 65.201828,360.132477 63.624104,361.178955 
	C62.285858,362.066559 61.914051,364.800690 61.664146,366.786896 
	C61.524452,367.897125 62.503815,369.148163 63.051277,370.516602 
	C58.753788,371.247223 53.095928,369.738251 52.981884,376.272705 
	C52.863739,383.042297 58.678463,381.746704 63.119732,382.435211 
	C62.768280,383.289856 62.584290,383.900330 62.281994,384.445129 
	C60.675987,387.339447 60.979660,390.056091 63.610703,392.013214 
	C66.434669,394.113892 69.259827,393.460846 71.672264,390.999084 
	C73.537842,389.095306 75.134682,386.814972 77.287102,385.337280 
	C79.446335,383.854980 82.056755,382.753967 84.624077,382.190674 
	C94.701706,379.979584 101.475159,383.837769 104.895950,393.674011 
	C105.595055,395.684235 107.167084,397.378632 107.994598,399.361389 
	C108.444084,400.438446 108.647850,402.061401 108.152573,403.019470 
	C104.057274,410.941498 100.570496,419.626190 89.412422,419.735626 
	C88.171181,419.747833 86.512505,420.260864 85.798027,421.146912 
	C84.632942,422.591827 83.213402,424.704956 83.508163,426.224396 
	C83.848572,427.979004 85.750137,429.623840 87.326874,430.869415 
	C88.201866,431.560577 89.797050,431.340088 91.348984,431.572693 
	C89.901291,435.647339 86.151817,439.990601 91.345695,443.284668 
	C96.776993,446.729340 99.066628,441.278442 102.013062,438.007874 
	C102.678062,438.824829 102.992371,439.610931 103.500549,439.767426 
	C105.970131,440.527802 109.156807,442.336517 110.810005,441.432953 
	C112.505173,440.506470 113.361267,436.878723 113.401657,434.413849 
	C113.443283,431.873688 111.663399,429.348175 111.412956,426.745789 
	C111.178360,424.308044 111.532730,421.662384 112.268784,419.308655 
	C115.464294,409.089966 122.417213,405.005493 133.000717,407.031525 
	C134.769806,407.370209 136.696777,406.863159 138.476822,407.172516 
	C139.813049,407.404785 141.580246,407.975220 142.213181,408.985474 
	C146.818924,416.336975 152.971649,423.445221 147.350006,433.046234 
	C146.791931,433.999359 146.362213,435.466278 146.691757,436.408264 
	C147.358521,438.314270 148.199112,440.948517 149.685822,441.572632 
	C151.422882,442.301849 154.021713,441.485046 156.056229,440.785248 
	C157.073715,440.435303 157.667679,438.853973 158.631210,437.597473 
	C161.185699,441.247345 163.231674,446.263306 168.673904,443.566925 
	C174.917908,440.473328 170.362289,435.657074 169.888214,433.557861 
	C172.940552,430.467194 176.160156,428.681702 176.821945,426.211090 
	C177.979782,421.888611 174.268463,420.316986 170.585434,419.496216 
	C168.473267,419.025513 166.223007,418.813934 164.310318,417.905640 
	C162.210175,416.908386 159.773010,415.654907 158.611069,413.804504 
	C151.021561,401.717987 151.121109,401.654877 158.280273,389.251038 
	C159.112869,387.808533 159.702866,386.108093 160.859283,385.001770 
	C162.155045,383.762146 163.902084,382.402832 165.565826,382.238220 
	C174.328400,381.371124 182.952316,381.321014 188.195557,390.412781 
	C188.513718,390.964478 189.103348,391.660706 189.641006,391.732452 
	C191.955826,392.041351 194.908249,393.071320 196.457458,392.054504 
	C197.973099,391.059723 198.243851,387.936707 198.702072,385.675171 
	C198.887802,384.758484 198.123535,383.649323 197.690689,382.317413 
	C202.338364,382.011566 207.727310,382.590973 207.684418,376.380676 
	C207.641373,370.148346 202.019547,371.124542 197.630096,370.448578 
	C198.048157,369.304474 198.797531,368.315948 198.622330,367.534760 
	C198.087799,365.151276 197.846725,361.750641 196.266327,360.814850 
	C194.615036,359.837097 191.488220,361.068787 189.115753,361.727997 
	C188.142670,361.998413 187.300644,363.195496 186.664337,364.148254 
	C182.827621,369.893036 177.483658,371.884430 170.781708,370.863373 
	C169.316025,370.640076 167.627960,371.239594 166.324509,370.733459 
	C164.224319,369.917908 161.743103,368.942261 160.518295,367.244110 
	C157.706879,363.346161 155.411163,359.045654 153.218216,354.749268 
	C152.481064,353.305023 151.940460,350.997559 152.585022,349.736115 
	C156.455490,342.161377 159.487106,333.623993 170.366180,333.357300 
	C174.039536,333.267242 177.285049,331.432251 177.052322,326.863678 
	C176.825577,322.412476 173.412659,321.862030 169.972595,321.439758 
	C169.776871,321.415741 169.634766,320.955078 169.405594,320.601959 
	C170.996201,316.955780 174.292130,312.813141 169.242950,309.662750 
	C163.361893,305.993317 161.350372,311.801117 158.476547,315.343170 
	C157.927002,314.527832 157.551254,313.990601 157.196152,313.440063 
	C155.417496,310.682495 152.978500,309.641479 149.925629,311.029449 
	C146.868820,312.419281 146.112762,315.004974 146.888962,318.123535 
	C147.290878,319.738281 147.549866,321.436493 148.248047,322.920776 
	C150.523956,327.759247 149.186493,331.749115 146.993179,336.488312 
	C143.367905,344.321594 138.228287,346.292694 129.872482,346.284973 
	C121.768608,346.277466 116.524529,344.345184 113.528580,335.977722 
z"/>
<path fill="#7BD8F7" opacity="1.000000" stroke="none" 
	d="
M509.878967,256.444031 
	C458.331024,256.869629 406.859161,256.840271 355.387268,256.807312 
	C322.904968,256.786530 290.422668,256.760345 257.478424,256.688660 
	C257.016479,256.640747 256.859222,256.551697 256.772156,256.126160 
	C256.697968,246.218246 256.719147,236.735886 256.722229,227.253540 
	C256.746521,152.558136 256.767365,77.862740 256.789307,3.167339 
	C258.117798,3.111771 259.446259,3.007696 260.774750,3.007570 
	C342.216980,2.999839 423.659241,3.000622 505.101471,3.000615 
	C506.565826,3.000615 508.030151,3.000615 509.954987,3.000615 
	C509.954987,87.557831 509.954987,171.772705 509.878967,256.444031 
M397.861725,86.590042 
	C393.025543,77.566353 389.153625,68.267059 388.907471,57.788048 
	C388.827881,54.399345 386.992859,52.063316 383.359528,51.930790 
	C379.391571,51.786060 377.456635,54.330196 377.366547,57.859741 
	C377.025024,71.245613 370.807068,82.381325 364.472961,93.608711 
	C357.288788,106.343010 349.502197,118.890953 343.887207,132.318481 
	C336.741669,149.406235 336.606018,167.099899 346.015411,183.885406 
	C359.108856,207.242889 386.914886,213.895630 407.466797,198.583786 
	C416.311432,191.994217 422.121521,183.177414 425.044189,172.571548 
	C429.603668,156.026062 427.095612,140.007385 419.609833,125.018440 
	C413.152069,112.087822 405.384155,99.811493 397.861725,86.590042 
z"/>
<path fill="#FFBE01" opacity="1.000000" stroke="none" 
	d="
M256.338562,3.100470 
	C256.767365,77.862740 256.746521,152.558136 256.722229,227.253540 
	C256.719147,236.735886 256.697968,246.218246 256.682495,256.136902 
	C254.351822,256.624451 252.023834,256.719849 249.695801,256.720459 
	C167.823257,256.741516 85.950706,256.753723 3.620114,256.787720 
	C3.107848,255.479279 3.006287,254.150192 3.006165,252.821121 
	C2.998623,171.050659 2.999384,89.280212 2.999378,7.509753 
	C2.999378,6.200449 2.999378,4.891144 2.999378,3.033602 
	C87.487419,3.033602 171.687622,3.033602 256.338562,3.100470 
M102.009926,89.479607 
	C86.642570,101.087250 79.856377,116.444748 81.915886,135.627182 
	C84.567863,160.327789 106.898651,178.881363 132.857803,177.995529 
	C156.932449,177.173996 178.008133,156.454193 178.957764,132.460663 
	C179.744751,112.576797 171.725830,96.971779 154.511063,87.060570 
	C137.094406,77.033134 119.508911,78.233444 102.009926,89.479607 
M84.881058,75.670563 
	C81.365013,72.163467 77.841843,68.663475 74.335167,65.147041 
	C71.484428,62.288380 68.227524,61.329983 65.223427,64.442726 
	C62.428192,67.339058 63.326717,70.489311 66.041946,73.193039 
	C69.560951,76.697151 73.103447,80.178940 76.563210,83.740875 
	C79.151184,86.405281 82.097794,87.842239 85.288010,85.247810 
	C88.662926,82.503189 88.134155,79.238518 84.881058,75.670563 
M183.763123,174.567520 
	C180.948288,171.748459 177.757629,170.547684 174.665588,173.767761 
	C171.335037,177.236191 173.111099,180.369141 176.044128,183.213943 
	C179.616501,186.678879 183.060074,190.276367 186.618637,193.755890 
	C189.402100,196.477478 192.512863,197.030212 195.353745,194.054077 
	C198.019409,191.261505 197.349335,188.260590 194.825562,185.661316 
	C191.358795,182.090836 187.798233,178.611450 183.763123,174.567520 
M41.152412,124.326988 
	C40.360924,126.635902 38.420986,129.389740 39.095470,131.130707 
	C39.793636,132.932770 42.945755,134.617645 45.169891,134.829849 
	C50.609814,135.348877 56.136070,135.085541 61.622795,134.947281 
	C65.116615,134.859222 67.313835,132.879608 67.378021,129.350800 
	C67.442429,125.809731 65.342010,123.665504 61.805706,123.648064 
	C55.167969,123.615303 48.528793,123.875084 41.152412,124.326988 
M213.242111,135.003738 
	C213.740280,135.003448 214.239075,135.019302 214.736542,135.000351 
	C219.798035,134.807388 222.362930,132.767883 222.059662,128.957733 
	C221.693939,124.363014 218.469162,123.511978 214.620438,123.544846 
	C209.473007,123.588806 204.323959,123.505852 199.177689,123.596519 
	C195.479736,123.661674 193.022614,125.542458 193.103821,129.350220 
	C193.183960,133.107941 195.654556,134.939514 199.351089,134.985107 
	C203.667953,135.038345 207.985962,135.001556 213.242111,135.003738 
M125.701866,194.356461 
	C125.320541,201.266083 124.783913,208.172043 124.620995,215.086807 
	C124.534714,218.749222 126.561279,221.185226 130.459518,221.035904 
	C134.315277,220.888199 135.969009,218.377640 135.991577,214.704514 
	C136.024323,209.379944 136.111115,204.052170 135.973053,198.731003 
	C135.811798,192.516693 131.824722,190.535065 125.701866,194.356461 
M135.406113,40.677677 
	C133.049408,39.698616 130.389557,37.570187 128.427582,38.087673 
	C126.718636,38.538429 124.916000,41.890656 124.702538,44.109707 
	C124.179688,49.544861 124.459740,55.068295 124.595718,60.551765 
	C124.681557,64.013657 126.527229,66.315918 130.116028,66.354385 
	C133.921280,66.395157 135.935638,64.092445 135.960205,60.366375 
	C136.001816,54.055099 135.841858,47.742500 135.406113,40.677677 
M183.983047,67.409691 
	C180.810593,70.600517 177.156433,73.464569 174.674255,77.123642 
	C173.480194,78.883842 173.601746,82.666985 174.729523,84.598885 
	C176.303467,87.295120 179.783798,87.401779 182.183182,85.214233 
	C186.856995,80.953102 191.511566,76.584610 195.495071,71.706123 
	C196.662384,70.276520 196.478775,65.882805 195.228455,64.806969 
	C193.633392,63.434517 190.290482,63.696995 187.776169,63.963776 
	C186.595367,64.089058 185.590515,65.872581 183.983047,67.409691 
M63.792160,191.273392 
	C66.304665,196.412094 69.646820,197.532013 73.401443,194.103867 
	C77.698372,190.180557 81.759743,185.988129 85.773148,181.769623 
	C88.175507,179.244492 88.312912,176.262436 85.851662,173.736206 
	C83.386078,171.205521 80.400368,171.237549 77.847198,173.652390 
	C73.617401,177.653015 69.479515,181.762955 65.517792,186.026505 
	C64.496925,187.125153 64.277504,188.968521 63.792160,191.273392 
z"/>
<path fill="#FDFEFE" opacity="1.000000" stroke="none" 
	d="
M431.347382,376.624084 
	C441.926117,375.032440 448.199921,369.276947 449.042450,360.772888 
	C449.896362,352.153412 445.460724,344.716797 437.567078,341.783844 
	C435.877594,341.156097 434.032379,340.843140 432.230316,340.644073 
	C428.284973,340.208374 425.399139,338.718719 425.640076,334.193359 
	C425.837128,330.492432 428.883850,328.688934 433.846863,329.093994 
	C449.039062,330.333923 461.283356,344.047363 460.792328,359.272522 
	C460.289825,374.854675 447.871826,387.781128 432.397797,387.940979 
	C404.242340,388.231812 376.082123,388.062805 347.923889,388.080017 
	C336.427216,388.087036 324.930359,388.038269 313.434021,388.100189 
	C309.330627,388.122284 305.830902,387.225647 305.805237,382.355743 
	C305.779083,377.400208 309.392426,376.654846 313.440704,376.656494 
	C352.596008,376.672485 391.751343,376.654663 431.347382,376.624084 
z"/>
<path fill="#F9FBFC" opacity="1.000000" stroke="none" 
	d="
M433.479126,424.750977 
	C435.584564,443.267700 422.842987,458.874756 405.904022,459.162750 
	C402.102112,459.227386 399.134705,458.201111 398.865143,453.937134 
	C398.602295,449.779816 401.147308,448.237152 405.052917,447.748810 
	C414.987640,446.506653 421.311859,440.477814 422.169464,431.835175 
	C423.041565,423.046509 418.354584,415.381409 410.135284,412.804535 
	C407.501068,411.978638 404.573059,411.828735 401.777863,411.818604 
	C380.455170,411.741394 359.132050,411.788483 337.809143,411.751099 
	C335.999878,411.747955 333.770508,412.000519 332.487183,411.083466 
	C330.828003,409.897827 328.947845,407.642914 328.969086,405.870026 
	C328.990540,404.078186 330.960907,402.005157 332.577515,400.653198 
	C333.520111,399.864929 335.443115,400.126251 336.925293,400.124512 
	C359.081146,400.098511 381.237274,400.048615 403.392883,400.128326 
	C418.731506,400.183472 430.030518,409.396790 433.479126,424.750977 
z"/>
<path fill="#FEFFFF" opacity="1.000000" stroke="none" 
	d="
M385.000244,353.569031 
	C392.664490,353.571075 399.828705,353.581024 406.992920,353.572205 
	C410.935425,353.567352 414.155640,354.707336 414.067017,359.326630 
	C413.980408,363.840973 410.848145,365.020844 406.865479,365.014343 
	C387.038971,364.982025 367.212311,364.976715 347.385834,365.019043 
	C343.425385,365.027466 340.365631,363.930756 340.002991,359.453217 
	C339.698975,355.699524 342.384705,353.614319 347.512970,353.590820 
	C359.841827,353.534332 372.171112,353.570404 385.000244,353.569031 
z"/>
<path fill="#FDFEFE" opacity="1.000000" stroke="none" 
	d="
M113.713287,336.294708 
	C116.524529,344.345184 121.768608,346.277466 129.872482,346.284973 
	C138.228287,346.292694 143.367905,344.321594 146.993179,336.488312 
	C149.186493,331.749115 150.523956,327.759247 148.248047,322.920776 
	C147.549866,321.436493 147.290878,319.738281 146.888962,318.123535 
	C146.112762,315.004974 146.868820,312.419281 149.925629,311.029449 
	C152.978500,309.641479 155.417496,310.682495 157.196152,313.440063 
	C157.551254,313.990601 157.927002,314.527832 158.476547,315.343170 
	C161.350372,311.801117 163.361893,305.993317 169.242950,309.662750 
	C174.292130,312.813141 170.996201,316.955780 169.405594,320.601959 
	C169.634766,320.955078 169.776871,321.415741 169.972595,321.439758 
	C173.412659,321.862030 176.825577,322.412476 177.052322,326.863678 
	C177.285049,331.432251 174.039536,333.267242 170.366180,333.357300 
	C159.487106,333.623993 156.455490,342.161377 152.585022,349.736115 
	C151.940460,350.997559 152.481064,353.305023 153.218216,354.749268 
	C155.411163,359.045654 157.706879,363.346161 160.518295,367.244110 
	C161.743103,368.942261 164.224319,369.917908 166.324509,370.733459 
	C167.627960,371.239594 169.316025,370.640076 170.781708,370.863373 
	C177.483658,371.884430 182.827621,369.893036 186.664337,364.148254 
	C187.300644,363.195496 188.142670,361.998413 189.115753,361.727997 
	C191.488220,361.068787 194.615036,359.837097 196.266327,360.814850 
	C197.846725,361.750641 198.087799,365.151276 198.622330,367.534760 
	C198.797531,368.315948 198.048157,369.304474 197.630096,370.448578 
	C202.019547,371.124542 207.641373,370.148346 207.684418,376.380676 
	C207.727310,382.590973 202.338364,382.011566 197.690689,382.317413 
	C198.123535,383.649323 198.887802,384.758484 198.702072,385.675171 
	C198.243851,387.936707 197.973099,391.059723 196.457458,392.054504 
	C194.908249,393.071320 191.955826,392.041351 189.641006,391.732452 
	C189.103348,391.660706 188.513718,390.964478 188.195557,390.412781 
	C182.952316,381.321014 174.328400,381.371124 165.565826,382.238220 
	C163.902084,382.402832 162.155045,383.762146 160.859283,385.001770 
	C159.702866,386.108093 159.112869,387.808533 158.280273,389.251038 
	C151.121109,401.654877 151.021561,401.717987 158.611069,413.804504 
	C159.773010,415.654907 162.210175,416.908386 164.310318,417.905640 
	C166.223007,418.813934 168.473267,419.025513 170.585434,419.496216 
	C174.268463,420.316986 177.979782,421.888611 176.821945,426.211090 
	C176.160156,428.681702 172.940552,430.467194 169.888214,433.557861 
	C170.362289,435.657074 174.917908,440.473328 168.673904,443.566925 
	C163.231674,446.263306 161.185699,441.247345 158.631210,437.597473 
	C157.667679,438.853973 157.073715,440.435303 156.056229,440.785248 
	C154.021713,441.485046 151.422882,442.301849 149.685822,441.572632 
	C148.199112,440.948517 147.358521,438.314270 146.691757,436.408264 
	C146.362213,435.466278 146.791931,433.999359 147.350006,433.046234 
	C152.971649,423.445221 146.818924,416.336975 142.213181,408.985474 
	C141.580246,407.975220 139.813049,407.404785 138.476822,407.172516 
	C136.696777,406.863159 134.769806,407.370209 133.000717,407.031525 
	C122.417213,405.005493 115.464294,409.089966 112.268784,419.308655 
	C111.532730,421.662384 111.178360,424.308044 111.412956,426.745789 
	C111.663399,429.348175 113.443283,431.873688 113.401657,434.413849 
	C113.361267,436.878723 112.505173,440.506470 110.810005,441.432953 
	C109.156807,442.336517 105.970131,440.527802 103.500549,439.767426 
	C102.992371,439.610931 102.678062,438.824829 102.013062,438.007874 
	C99.066628,441.278442 96.776993,446.729340 91.345695,443.284668 
	C86.151817,439.990601 89.901291,435.647339 91.348984,431.572693 
	C89.797050,431.340088 88.201866,431.560577 87.326874,430.869415 
	C85.750137,429.623840 83.848572,427.979004 83.508163,426.224396 
	C83.213402,424.704956 84.632942,422.591827 85.798027,421.146912 
	C86.512505,420.260864 88.171181,419.747833 89.412422,419.735626 
	C100.570496,419.626190 104.057274,410.941498 108.152573,403.019470 
	C108.647850,402.061401 108.444084,400.438446 107.994598,399.361389 
	C107.167084,397.378632 105.595055,395.684235 104.895950,393.674011 
	C101.475159,383.837769 94.701706,379.979584 84.624077,382.190674 
	C82.056755,382.753967 79.446335,383.854980 77.287102,385.337280 
	C75.134682,386.814972 73.537842,389.095306 71.672264,390.999084 
	C69.259827,393.460846 66.434669,394.113892 63.610703,392.013214 
	C60.979660,390.056091 60.675987,387.339447 62.281994,384.445129 
	C62.584290,383.900330 62.768280,383.289856 63.119732,382.435211 
	C58.678463,381.746704 52.863739,383.042297 52.981884,376.272705 
	C53.095928,369.738251 58.753788,371.247223 63.051277,370.516602 
	C62.503815,369.148163 61.524452,367.897125 61.664146,366.786896 
	C61.914051,364.800690 62.285858,362.066559 63.624104,361.178955 
	C65.201828,360.132477 67.873505,360.531006 70.042938,360.688293 
	C70.835953,360.745758 71.789841,361.768738 72.261497,362.586945 
	C77.542870,371.749023 86.248703,371.480316 94.986755,370.704102 
	C96.649376,370.556396 98.742653,369.303040 99.668404,367.914062 
	C102.618622,363.487701 105.122795,358.763000 107.770935,354.137329 
	C108.179413,353.423828 108.654015,352.645905 108.730186,351.862030 
	C109.067184,348.394104 99.774307,335.867218 96.289917,334.979736 
	C93.869949,334.363373 91.455116,333.720856 89.018578,333.177032 
	C85.541832,332.400970 83.004570,330.562927 83.359039,326.758698 
	C83.685806,323.251740 86.175301,321.678802 89.672501,321.712006 
	C90.131256,321.716370 90.592194,321.490112 91.275963,321.312561 
	C90.003746,317.230927 85.966225,312.673065 91.651184,309.404785 
	C96.977348,306.342773 99.077492,311.580688 101.893661,314.934479 
	C102.822067,313.855042 103.398254,312.557922 104.303467,312.259827 
	C106.355194,311.584106 109.147614,310.426086 110.567223,311.269012 
	C112.257988,312.272919 113.431374,315.089508 113.704239,317.261993 
	C113.952202,319.236298 112.908409,321.493713 112.053978,323.461212 
	C110.090706,327.981964 110.322632,332.124329 113.713287,336.294708 
M112.473450,368.998322 
	C107.564400,374.270966 109.899284,378.889496 112.544662,384.614105 
	C116.689659,393.583893 122.304604,396.879181 132.201202,396.045868 
	C138.625290,395.504974 142.212616,393.908661 145.962646,388.298218 
	C151.644806,379.797180 151.771011,373.193878 145.990311,364.678589 
	C142.232864,359.143677 138.741394,357.366028 132.253616,356.896393 
	C122.479820,356.188934 115.934982,358.774994 112.473450,368.998322 
z"/>
<path fill="#FCFEFF" opacity="1.000000" stroke="none" 
	d="
M398.028595,86.917969 
	C405.384155,99.811493 413.152069,112.087822 419.609833,125.018440 
	C427.095612,140.007385 429.603668,156.026062 425.044189,172.571548 
	C422.121521,183.177414 416.311432,191.994217 407.466797,198.583786 
	C386.914886,213.895630 359.108856,207.242889 346.015411,183.885406 
	C336.606018,167.099899 336.741669,149.406235 343.887207,132.318481 
	C349.502197,118.890953 357.288788,106.343010 364.472961,93.608711 
	C370.807068,82.381325 377.025024,71.245613 377.366547,57.859741 
	C377.456635,54.330196 379.391571,51.786060 383.359528,51.930790 
	C386.992859,52.063316 388.827881,54.399345 388.907471,57.788048 
	C389.153625,68.267059 393.025543,77.566353 398.028595,86.917969 
M350.843567,160.321564 
	C352.848816,166.766815 353.732819,173.870193 357.060394,179.539291 
	C369.146942,200.130814 395.256744,200.620438 408.635834,180.857178 
	C417.488495,167.780304 418.451874,153.003387 412.499573,139.254852 
	C404.297302,120.309349 393.776398,102.367661 383.743317,83.021301 
	C375.085327,97.933426 367.022369,111.282890 359.508667,124.934669 
	C353.655365,135.569656 350.133453,146.992798 350.843567,160.321564 
z"/>
<path fill="#FFFEFA" opacity="1.000000" stroke="none" 
	d="
M102.298264,89.261749 
	C119.508911,78.233444 137.094406,77.033134 154.511063,87.060570 
	C171.725830,96.971779 179.744751,112.576797 178.957764,132.460663 
	C178.008133,156.454193 156.932449,177.173996 132.857803,177.995529 
	C106.898651,178.881363 84.567863,160.327789 81.915886,135.627182 
	C79.856377,116.444748 86.642570,101.087250 102.298264,89.261749 
M148.930969,161.569901 
	C166.113022,150.596893 172.263260,130.984344 164.031784,113.414970 
	C156.132523,96.554718 136.937897,88.071396 119.243202,93.620041 
	C98.434822,100.145088 87.561981,122.765587 95.544243,142.924759 
	C103.838211,163.871155 127.343040,172.344101 148.930969,161.569901 
z"/>
<path fill="#FFFCF4" opacity="1.000000" stroke="none" 
	d="
M85.130859,75.927002 
	C88.134155,79.238518 88.662926,82.503189 85.288010,85.247810 
	C82.097794,87.842239 79.151184,86.405281 76.563210,83.740875 
	C73.103447,80.178940 69.560951,76.697151 66.041946,73.193039 
	C63.326717,70.489311 62.428192,67.339058 65.223427,64.442726 
	C68.227524,61.329983 71.484428,62.288380 74.335167,65.147041 
	C77.841843,68.663475 81.365013,72.163467 85.130859,75.927002 
z"/>
<path fill="#FFFCF4" opacity="1.000000" stroke="none" 
	d="
M184.020477,174.830276 
	C187.798233,178.611450 191.358795,182.090836 194.825562,185.661316 
	C197.349335,188.260590 198.019409,191.261505 195.353745,194.054077 
	C192.512863,197.030212 189.402100,196.477478 186.618637,193.755890 
	C183.060074,190.276367 179.616501,186.678879 176.044128,183.213943 
	C173.111099,180.369141 171.335037,177.236191 174.665588,173.767761 
	C177.757629,170.547684 180.948288,171.748459 184.020477,174.830276 
z"/>
<path fill="#FFFEFC" opacity="1.000000" stroke="none" 
	d="
M41.521313,124.170090 
	C48.528793,123.875084 55.167969,123.615303 61.805706,123.648064 
	C65.342010,123.665504 67.442429,125.809731 67.378021,129.350800 
	C67.313835,132.879608 65.116615,134.859222 61.622795,134.947281 
	C56.136070,135.085541 50.609814,135.348877 45.169891,134.829849 
	C42.945755,134.617645 39.793636,132.932770 39.095470,131.130707 
	C38.420986,129.389740 40.360924,126.635902 41.521313,124.170090 
z"/>
<path fill="#FFFEFC" opacity="1.000000" stroke="none" 
	d="
M212.772797,135.003784 
	C207.985962,135.001556 203.667953,135.038345 199.351089,134.985107 
	C195.654556,134.939514 193.183960,133.107941 193.103821,129.350220 
	C193.022614,125.542458 195.479736,123.661674 199.177689,123.596519 
	C204.323959,123.505852 209.473007,123.588806 214.620438,123.544846 
	C218.469162,123.511978 221.693939,124.363014 222.059662,128.957733 
	C222.362930,132.767883 219.798035,134.807388 214.736542,135.000351 
	C214.239075,135.019302 213.740280,135.003448 212.772797,135.003784 
z"/>
<path fill="#FFFEFC" opacity="1.000000" stroke="none" 
	d="
M125.957352,194.048813 
	C131.824722,190.535065 135.811798,192.516693 135.973053,198.731003 
	C136.111115,204.052170 136.024323,209.379944 135.991577,214.704514 
	C135.969009,218.377640 134.315277,220.888199 130.459518,221.035904 
	C126.561279,221.185226 124.534714,218.749222 124.620995,215.086807 
	C124.783913,208.172043 125.320541,201.266083 125.957352,194.048813 
z"/>
<path fill="#FFFEFC" opacity="1.000000" stroke="none" 
	d="
M135.586365,41.054070 
	C135.841858,47.742500 136.001816,54.055099 135.960205,60.366375 
	C135.935638,64.092445 133.921280,66.395157 130.116028,66.354385 
	C126.527229,66.315918 124.681557,64.013657 124.595718,60.551765 
	C124.459740,55.068295 124.179688,49.544861 124.702538,44.109707 
	C124.916000,41.890656 126.718636,38.538429 128.427582,38.087673 
	C130.389557,37.570187 133.049408,39.698616 135.586365,41.054070 
z"/>
<path fill="#FFFEF9" opacity="1.000000" stroke="none" 
	d="
M184.244492,67.157166 
	C185.590515,65.872581 186.595367,64.089058 187.776169,63.963776 
	C190.290482,63.696995 193.633392,63.434517 195.228455,64.806969 
	C196.478775,65.882805 196.662384,70.276520 195.495071,71.706123 
	C191.511566,76.584610 186.856995,80.953102 182.183182,85.214233 
	C179.783798,87.401779 176.303467,87.295120 174.729523,84.598885 
	C173.601746,82.666985 173.480194,78.883842 174.674255,77.123642 
	C177.156433,73.464569 180.810593,70.600517 184.244492,67.157166 
z"/>
<path fill="#FFFEFA" opacity="1.000000" stroke="none" 
	d="
M63.741039,190.871582 
	C64.277504,188.968521 64.496925,187.125153 65.517792,186.026505 
	C69.479515,181.762955 73.617401,177.653015 77.847198,173.652390 
	C80.400368,171.237549 83.386078,171.205521 85.851662,173.736206 
	C88.312912,176.262436 88.175507,179.244492 85.773148,181.769623 
	C81.759743,185.988129 77.698372,190.180557 73.401443,194.103867 
	C69.646820,197.532013 66.304665,196.412094 63.741039,190.871582 
z"/>
<path fill="#84BDDB" opacity="1.000000" stroke="none" 
	d="
M112.662277,368.678711 
	C115.934982,358.774994 122.479820,356.188934 132.253616,356.896393 
	C138.741394,357.366028 142.232864,359.143677 145.990311,364.678589 
	C151.771011,373.193878 151.644806,379.797180 145.962646,388.298218 
	C142.212616,393.908661 138.625290,395.504974 132.201202,396.045868 
	C122.304604,396.879181 116.689659,393.583893 112.544662,384.614105 
	C109.899284,378.889496 107.564400,374.270966 112.662277,368.678711 
z"/>
<path fill="#7CD8F7" opacity="1.000000" stroke="none" 
	d="
M350.828033,159.848236 
	C350.133453,146.992798 353.655365,135.569656 359.508667,124.934669 
	C367.022369,111.282890 375.085327,97.933426 383.743317,83.021301 
	C393.776398,102.367661 404.297302,120.309349 412.499573,139.254852 
	C418.451874,153.003387 417.488495,167.780304 408.635834,180.857178 
	C395.256744,200.620438 369.146942,200.130814 357.060394,179.539291 
	C353.732819,173.870193 352.848816,166.766815 350.828033,159.848236 
z"/>
<path fill="#FFBE02" opacity="1.000000" stroke="none" 
	d="
M148.606201,161.752609 
	C127.343040,172.344101 103.838211,163.871155 95.544243,142.924759 
	C87.561981,122.765587 98.434822,100.145088 119.243202,93.620041 
	C136.937897,88.071396 156.132523,96.554718 164.031784,113.414970 
	C172.263260,130.984344 166.113022,150.596893 148.606201,161.752609 
z"/>
</svg>